<?xml version="1.0" standalone="no"?>
<!DOCTYPE svg PUBLIC "-//W3C//DTD SVG 20010904//EN"
 "http://www.w3.org/TR/2001/REC-SVG-20010904/DTD/svg10.dtd">
<svg version="1.0" xmlns="http://www.w3.org/2000/svg"
 width="464.000000pt" height="464.000000pt" viewBox="0 0 464.000000 464.000000"
 preserveAspectRatio="xMidYMid meet">
<metadata>
Created by potrace 1.11, written by Peter Selinger 2001-2013
</metadata>
<g transform="translate(0.000000,464.000000) scale(0.100000,-0.100000)"
fill="#000000" stroke="none">
<path d="M2505 3572 c-2 -2 -17 -6 -32 -8 -45 -6 -112 -23 -128 -33 -5 -3 -14
-6 -20 -7 -5 -1 -23 -8 -40 -15 -33 -14 -54 -20 -72 -21 -7 -1 -13 -6 -13 -11
0 -6 -3 -7 -7 -4 -3 4 -21 -5 -40 -19 -21 -16 -40 -23 -51 -19 -9 3 -19 6 -22
7 -3 0 -13 4 -22 9 -13 7 -18 6 -18 -2 0 -7 -3 -9 -7 -6 -3 4 -17 0 -30 -8
-13 -9 -23 -12 -23 -9 0 4 -9 -1 -20 -11 -11 -10 -20 -15 -20 -12 0 9 -37 -20
-77 -61 -18 -18 -33 -41 -33 -51 0 -17 -42 -59 -118 -121 -17 -14 -31 -28 -32
-32 0 -3 -15 -22 -32 -40 -49 -52 -73 -81 -94 -116 -10 -18 -22 -32 -27 -32
-4 0 -6 -4 -3 -9 3 -5 -4 -21 -16 -37 -12 -15 -23 -33 -24 -39 -1 -7 -16 -43
-34 -81 -17 -38 -34 -77 -36 -87 -2 -10 -6 -28 -10 -40 -4 -12 -9 -33 -11 -47
-2 -14 -6 -36 -9 -50 -2 -14 -6 -38 -9 -55 -2 -16 -7 -46 -10 -65 -12 -64 -5
-373 9 -387 3 -3 -3 -18 -12 -32 -17 -25 -19 -53 -9 -127 9 -66 76 -169 109
-169 9 0 78 -77 78 -86 0 -3 8 -15 18 -27 9 -11 32 -38 50 -61 60 -73 106
-114 188 -167 97 -62 199 -115 208 -107 3 3 8 -2 12 -11 3 -9 10 -13 15 -11 4
3 26 -3 48 -15 22 -11 51 -22 63 -24 13 -3 23 -5 23 -6 0 -1 7 -3 15 -5 8 -2
26 -7 40 -10 14 -4 41 -8 60 -10 19 -2 46 -6 59 -9 14 -3 30 -1 37 5 7 5 15 6
17 2 3 -5 43 -8 89 -7 56 1 90 -3 106 -13 12 -7 22 -11 22 -7 0 3 12 -2 28
-12 36 -24 104 -25 172 -2 30 10 56 17 57 16 1 -2 11 5 22 14 33 28 66 47 86
51 11 2 44 15 73 30 28 15 52 24 52 21 0 -4 7 0 17 7 9 8 18 13 20 11 7 -6 67
11 103 29 19 10 56 27 83 38 26 11 47 25 47 31 0 5 7 10 15 10 9 0 18 7 21 15
4 8 12 15 20 15 20 0 103 84 117 120 11 25 12 63 5 147 -1 7 -13 27 -27 43
-22 26 -34 31 -79 34 -29 2 -54 0 -57 -3 -4 -8 -289 -6 -323 2 -12 3 -26 8
-30 11 -5 3 -19 7 -33 10 -13 3 -35 8 -49 11 -14 3 -29 7 -35 9 -40 9 -295
137 -295 147 0 5 -6 9 -13 9 -7 0 -18 9 -25 20 -7 11 -18 20 -25 20 -7 0 -21
13 -30 30 -10 17 -22 30 -28 30 -5 0 -9 7 -9 15 0 7 -6 18 -14 22 -17 10 -105
162 -111 191 -2 12 -7 28 -12 35 -4 6 -8 19 -8 27 -1 8 -5 31 -10 50 -4 19 -9
55 -9 80 -1 25 -4 50 -7 55 -15 27 3 150 32 225 7 19 12 38 11 43 -1 4 2 7 8
7 5 0 10 5 10 11 0 12 70 115 99 147 12 12 19 22 16 22 -6 0 33 36 122 115
107 94 199 191 217 229 10 21 19 62 21 92 2 50 0 56 -34 91 -29 28 -47 38 -77
40 -82 6 -234 9 -239 5z"/>
</g>
</svg>
